<svg width="27" height="27" viewBox="0 0 27 27" fill="none" xmlns="http://www.w3.org/2000/svg">
<path d="M20.25 2.78437C18.2672 1.56094 15.9891 0.84375 13.5 0.84375V2.78437H20.25Z" fill="#727272"/>
<path d="M13.5 4.72505H22.6125C21.8953 4.00786 21.0938 3.33286 20.25 2.78442H13.5V4.72505Z" fill="white"/>
<path d="M13.5 6.6656H24.1734C23.7094 5.94841 23.2031 5.3156 22.6547 4.72498H13.5V6.6656Z" fill="#727272"/>
<path d="M13.5 8.60627H25.1859C24.8906 7.93127 24.5531 7.25627 24.1734 6.66565H13.5V8.60627Z" fill="white"/>
<path d="M13.5 10.5468H25.8188C25.65 9.87183 25.4391 9.23901 25.1859 8.6062H13.5V10.5468Z" fill="#727272"/>
<path d="M13.5 12.5297H26.1141C26.0719 11.8547 25.9453 11.2219 25.8188 10.5891H13.5V12.5297Z" fill="white"/>
<path d="M26.1141 12.5297H13.5V13.5H0.84375C0.84375 13.8375 0.84375 14.1328 0.885937 14.4703H26.1141C26.1562 14.1328 26.1562 13.8375 26.1562 13.5C26.1562 13.1625 26.1562 12.825 26.1141 12.5297Z" fill="#727272"/>
<path d="M1.18124 16.411H25.8187C25.9875 15.7782 26.0719 15.1453 26.1141 14.4703H0.885925C0.928113 15.1031 1.05468 15.7782 1.18124 16.411Z" fill="white"/>
<path d="M1.81406 18.3515H25.1859C25.4391 17.7187 25.65 17.0859 25.8187 16.4109H1.18124C1.34999 17.0859 1.56093 17.7187 1.81406 18.3515Z" fill="#727272"/>
<path d="M2.82656 20.2922H24.1734C24.5531 19.6594 24.8906 19.0266 25.1859 18.3516H1.81406C2.10937 19.0266 2.44687 19.6594 2.82656 20.2922Z" fill="white"/>
<path d="M4.34532 22.2329H22.6547C23.2031 21.6422 23.7516 20.9672 24.1734 20.2922H2.82657C3.24844 21.0094 3.79688 21.6422 4.34532 22.2329Z" fill="#727272"/>
<path d="M6.70781 24.1734H20.2922C21.1781 23.625 21.9375 22.95 22.6547 22.2328H4.34531C5.06249 22.9922 5.86406 23.625 6.70781 24.1734Z" fill="white"/>
<path d="M13.5 26.1563C15.9891 26.1563 18.3094 25.4391 20.2922 24.1735H6.70782C8.69064 25.4391 11.0109 26.1563 13.5 26.1563Z" fill="#727272"/>
<path d="M6.75 2.78437C5.86406 3.33281 5.0625 4.00781 4.34531 4.725C3.75469 5.31562 3.24844 5.99062 2.82656 6.66563C2.44687 7.29844 2.06719 7.93125 1.81406 8.60625C1.56094 9.23906 1.35 9.87187 1.18125 10.5469C1.0125 11.1797 0.928125 11.8125 0.885937 12.4875C0.84375 12.825 0.84375 13.1625 0.84375 13.5H13.5V0.84375C11.0109 0.84375 8.73281 1.56094 6.75 2.78437Z" fill="#222222"/>
<path d="M10.5469 1.26562L10.7578 1.89844H11.3906L10.8844 2.32031L11.0531 2.95312L10.5469 2.57344L10.0406 2.95312L10.2094 2.32031L9.70314 1.89844H10.3359L10.5469 1.26562ZM12.2344 3.79688L12.4453 4.42969H13.0781L12.5719 4.85156L12.7406 5.48438L12.2344 5.10469L11.7281 5.48438L11.8969 4.85156L11.3906 4.42969H12.0234L12.2344 3.79688ZM8.85939 3.79688L9.07032 4.42969H9.70314L9.19689 4.85156L9.36564 5.48438L8.85939 5.10469L8.35314 5.48438L8.52189 4.85156L8.01564 4.42969H8.64845L8.85939 3.79688ZM10.5469 6.32812L10.7578 6.96094H11.3906L10.8844 7.38281L11.0531 8.01562L10.5469 7.63594L10.0406 8.01562L10.2094 7.38281L9.70314 6.96094H10.3359L10.5469 6.32812ZM7.17189 6.32812L7.38282 6.96094H8.01564L7.50939 7.38281L7.67814 8.01562L7.17189 7.63594L6.66564 8.01562L6.83439 7.38281L6.32814 6.96094H6.96095L7.17189 6.32812ZM3.79689 6.32812L4.00782 6.96094H4.64064L4.13439 7.38281L4.30314 8.01562L3.79689 7.63594L3.29064 8.01562L3.45939 7.38281L2.95314 6.96094H3.58595L3.79689 6.32812ZM12.2344 8.85938L12.4453 9.49219H13.0781L12.5719 9.91406L12.7406 10.5469L12.2344 10.1672L11.7281 10.5469L11.8969 9.91406L11.3906 9.49219H12.0234L12.2344 8.85938ZM8.85939 8.85938L9.07032 9.49219H9.70314L9.19689 9.91406L9.36564 10.5469L8.85939 10.1672L8.35314 10.5469L8.52189 9.91406L8.01564 9.49219H8.64845L8.85939 8.85938ZM5.48439 8.85938L5.69532 9.49219H6.32814L5.82189 9.91406L5.99064 10.5469L5.48439 10.1672L4.97814 10.5469L5.14689 9.91406L4.64064 9.49219H5.27345L5.48439 8.85938ZM10.5469 11.3906L10.7578 12.0234H11.3906L10.8844 12.4453L11.0531 13.0781L10.5469 12.6984L10.0406 13.0781L10.2094 12.4453L9.70314 12.0234H10.3359L10.5469 11.3906ZM7.17189 11.3906L7.38282 12.0234H8.01564L7.50939 12.4453L7.67814 13.0781L7.17189 12.6984L6.66564 13.0781L6.83439 12.4453L6.32814 12.0234H6.96095L7.17189 11.3906ZM3.79689 11.3906L4.00782 12.0234H4.64064L4.13439 12.4453L4.30314 13.0781L3.79689 12.6984L3.29064 13.0781L3.45939 12.4453L2.95314 12.0234H3.58595L3.79689 11.3906ZM4.97814 5.48438L5.48439 5.10469L5.99064 5.48438L5.7797 4.85156L6.28595 4.42969H5.65314L5.48439 3.79688L5.27345 4.42969H4.68282L5.18907 4.80937L4.97814 5.48438ZM1.60314 10.5469L2.10939 10.1672L2.61564 10.5469L2.4047 9.91406L2.91095 9.49219H2.32032L2.10939 8.85938L1.89845 9.49219H1.47657C1.47657 9.53438 1.43439 9.57656 1.43439 9.61875L1.77189 9.87187L1.60314 10.5469Z" fill="white"/>
</svg>
