<svg width="27" height="27" viewBox="0 0 27 27" fill="none" xmlns="http://www.w3.org/2000/svg">
<path d="M13.5 26.1562C20.4899 26.1562 26.1562 20.4899 26.1562 13.5C26.1562 6.51015 20.4899 0.84375 13.5 0.84375C6.51015 0.84375 0.84375 6.51015 0.84375 13.5C0.84375 20.4899 6.51015 26.1562 13.5 26.1562Z" fill="#699635"/>
<path d="M13.3734 11.2641C13.3313 10.8844 13.5422 10.5047 13.9219 10.5891C14.2172 10.6313 14.5547 10.9266 14.3859 11.2219C14.1328 11.6859 13.4578 11.6859 13.0359 11.9391C13.0781 12.1922 14.3016 11.8969 14.5125 11.8969C14.7234 11.8969 14.9344 11.9813 14.8078 12.2344C14.6813 12.4875 14.2594 12.4875 14.0063 12.5297C13.7531 12.5719 13.3313 12.5719 13.2047 12.7828C12.9516 13.1203 13.4578 13.1625 13.6266 13.2469C14.0484 13.4578 13.3734 13.6687 13.2047 13.6266C12.5719 13.5 12.4453 13.1625 12.0656 12.7406C11.6859 13.2469 10.5047 14.3859 10.2516 13.2047C9.82969 13.3734 9.40782 13.5844 8.94376 13.6266C9.15469 13.3312 9.57657 13.2047 9.91407 13.0359C10.3359 12.825 10.3359 12.4453 10.5891 12.1078C10.6734 12.2344 10.5891 12.4031 10.6313 12.5719C10.9688 12.4031 11.3906 12.0656 11.2219 11.6438C11.2219 11.6016 10.7156 10.5891 11.1375 10.7578C11.5172 10.9266 11.3906 11.3062 11.475 11.6016C11.6016 12.15 11.3484 12.4453 10.9266 12.7828C10.7578 12.9094 10.2938 13.4156 10.8422 13.4156C11.2219 13.4156 11.5594 12.9938 11.7703 12.7406C12.0234 12.4031 11.9391 12.0656 11.7703 11.6859C11.6438 11.3906 11.3484 10.7578 11.7281 10.5469C12.0234 11.0109 12.15 11.5594 12.2766 12.1078C12.3609 12.5719 12.4453 13.0359 12.9516 13.1625C12.9094 12.825 13.1203 12.5719 13.4156 12.4453C13.2047 12.2766 12.0234 12.4875 12.4875 11.8547C12.5297 11.5594 13.3734 11.4328 13.3734 11.2641Z" fill="white"/>
<path d="M6.91876 12.825C7.1297 13.4156 7.84689 13.2047 8.26876 13.0359C8.94376 12.6984 8.94376 12.1922 8.94376 11.5172C8.69064 11.6437 8.73283 12.1078 8.64845 12.3187C8.4797 12.6562 7.93126 12.9515 7.55157 12.9094C7.00314 12.825 6.75001 11.8969 7.17189 11.5594C7.25626 11.8547 7.04532 12.4875 7.55157 12.5297C7.93126 12.5719 8.69064 12.1078 8.56407 11.6859C8.05782 11.8547 7.76251 11.6859 7.93126 11.1375C8.05782 10.6312 8.56407 11.0109 8.77501 11.264C9.57657 10.8 8.1422 9.02811 8.98595 8.56404C9.1547 8.85936 9.40782 9.23904 9.19689 9.53436C8.94376 9.87186 9.19689 10.589 9.23907 10.9687C9.66095 10.589 9.32345 11.264 9.66095 11.3062C9.87189 11.3484 9.95626 10.8 10.0828 10.8C10.125 10.9265 10.125 11.3062 10.336 11.264C10.5891 11.1797 10.2938 10.8422 10.5469 10.7578C10.6313 10.9687 10.5891 11.6015 10.2938 11.5594C10.0406 11.5172 10.0828 11.3484 9.78751 11.5172C9.53439 11.6437 9.45001 11.5172 9.28126 11.3906C9.23907 11.8969 9.40783 12.4453 9.11251 12.9094C8.85939 13.289 8.35314 13.5 7.93126 13.5844C6.83439 13.7953 6.53907 12.6984 6.91876 11.8125C7.00314 12.0656 6.83439 12.5297 6.91876 12.825ZM17.2125 13.0359C17.4234 13.5844 17.8453 12.4453 17.9719 12.2765C18.3094 11.7703 18.8156 13.0781 19.0266 12.2344C19.1531 11.6859 18.9844 11.1375 18.9422 10.589C18.9 10.2094 18.7735 9.87186 18.5203 9.57654C18.2672 9.23904 18.0141 8.94373 18.1406 8.52186C18.5625 8.69061 18.5625 9.02811 18.7734 9.36561C18.8156 9.11248 18.6469 8.77498 18.8156 8.56404C19.0266 8.26873 19.1953 9.07029 19.1953 9.15467C19.2375 9.36561 19.0266 9.44998 19.1531 9.78748C19.2375 10.0406 19.4063 10.2937 19.575 10.5047C19.5328 10.2515 19.1531 8.52186 19.575 8.52186C19.7016 8.52186 19.8281 9.02811 19.8281 9.11248C19.9125 9.36561 19.7438 9.57654 19.7438 9.87186C19.7016 10.3781 19.786 10.9687 20.1235 11.3484C20.2922 11.5594 20.925 12.3187 20.5875 12.5719C20.3344 12.2765 20.1656 11.939 19.9547 11.6437C19.9547 11.9812 20.0391 12.3609 19.8703 12.614C19.7016 12.5297 19.786 11.9812 19.786 11.8547C19.786 11.3906 19.4906 11.0109 19.2375 10.6312C19.1531 11.264 19.6594 12.4453 19.0688 12.9094C18.6891 13.2469 18.1828 12.4875 18.0563 12.7828C17.9297 12.9937 17.6344 13.7531 17.2969 13.6687C16.875 13.5844 16.5797 12.4031 17.0438 12.2765C17.086 12.4875 17.0859 12.7828 17.2125 13.0359Z" fill="white"/>
<path d="M8.18437 10.1672C8.47969 10.2094 8.18437 9.19688 8.18437 9.02813C8.22656 8.85938 8.35312 8.77501 8.4375 8.94376C8.56406 9.19688 8.56406 9.4922 8.60625 9.74532C8.60625 9.95626 8.64844 10.2094 8.47969 10.3781C8.22656 10.6313 7.88906 10.5047 7.7625 10.1672C7.17187 10.6734 7.93125 11.5594 7.425 12.0656C7.34062 11.6016 7.425 11.0953 7.25625 10.6734C7.17187 10.4625 6.79219 10.5469 6.75 10.1672C6.75 9.99845 6.87656 9.53438 6.70781 9.40782C6.62344 9.57657 6.53906 10.8844 6.11719 10.5047C5.77969 10.2516 5.86406 9.40782 5.99062 9.07032C6.24375 9.19688 5.94844 10.125 6.28594 10.1672C6.45469 10.2094 6.49687 9.4922 6.53906 9.36563C6.66562 9.1547 7.0875 8.56407 7.00312 9.1547C6.96094 9.40782 6.75 10.2094 7.25625 10.1672C7.21406 9.74532 7.17187 9.32345 7.0875 8.90157C7.04531 8.69063 7.17187 8.26876 7.34062 8.64845C7.46719 8.90157 7.38281 9.02813 7.34062 9.28126C7.29844 9.57657 7.425 9.87188 7.46719 10.125C7.72031 9.91407 7.38281 9.11251 7.59375 8.77501C8.1 9.07032 7.55156 10.0828 8.18437 10.1672ZM13.6266 10.2516C13.4156 10.5469 13.0359 10.2938 12.8672 10.0828C12.6562 10.3359 12.2344 10.7578 11.8969 10.4203C11.6437 10.1672 11.9391 9.70313 11.7281 9.4922C11.6016 9.70313 11.3906 10.7156 11.0109 10.2516C10.8 9.99844 10.5047 9.11251 10.9687 8.90157C10.9266 9.23907 10.8422 9.61876 11.0531 9.91407C11.2641 10.2094 11.475 9.45001 11.5594 9.28126C11.6859 8.98595 12.1078 8.4797 12.0234 9.11251C11.9812 9.36563 11.8969 9.95626 12.15 10.125C12.3187 10.2516 12.5297 10.0406 12.6141 9.91407C12.7828 9.70313 12.6984 9.36563 12.6562 9.11251C12.6141 8.90157 12.5297 8.64845 12.6562 8.43751C12.825 8.18438 12.9516 8.77501 12.9516 8.90157C12.9516 9.02813 13.1203 10.3359 13.4156 9.91407C13.7109 9.53438 12.9094 8.69063 13.4578 8.4797C13.6687 8.39532 14.0484 9.23907 13.6266 8.98594C13.7531 9.36563 13.9219 9.91407 13.6266 10.2516ZM15.2297 10.7578C15.2719 11.3063 15.7359 12.825 15.1031 13.1625C15.0187 12.9938 15.1031 12.7406 15.1453 12.5297C15.1875 12.15 15.1031 11.7703 15.0609 11.4328C14.9766 10.6313 14.8922 10.0406 14.3437 9.40782C14.2172 9.23907 14.0062 9.11251 13.9641 8.85938C13.9641 8.77501 13.9219 8.39532 14.0906 8.4797C14.2172 8.52188 14.9344 9.1547 14.5547 9.1547C14.5969 9.23907 14.7656 9.57657 14.85 9.57657C14.85 9.36563 14.5969 8.73282 14.85 8.60626C15.0609 8.4797 15.3141 9.28126 15.2297 9.45001C15.1453 9.66095 15.1453 9.78751 15.2297 10.0828C15.3141 10.4203 15.525 10.7156 15.6937 11.0109C15.9469 11.4328 16.4531 12.0234 16.3266 12.5719C16.0734 12.4453 15.9047 11.8547 15.7781 11.6016C15.6937 11.3906 15.6094 11.1797 15.4828 11.0109C15.4406 10.9688 15.1875 10.6313 15.2297 10.8422V10.7578ZM21.0937 11.5594C21.1359 12.4453 20.8406 13.5844 19.7437 13.5844C19.7437 13.3313 20.2922 13.0781 20.4609 12.9516C20.8828 12.6141 20.8406 11.9813 20.7984 11.5172C20.7562 10.8844 20.7141 10.2516 20.5875 9.61876C20.5453 9.23907 20.3344 8.69063 20.6719 8.43751C20.8828 8.60626 21.1781 9.07032 21.0516 9.23907C20.8406 9.4922 21.0516 11.3906 21.0937 11.5594Z" fill="white"/>
<path d="M15.6937 13.4578C16.7906 12.825 16.4531 11.475 16.3687 10.4203C16.3266 10.125 16.3266 9.82967 16.2844 9.53436C16.2844 9.32342 16.1156 9.02811 16.2 8.81717C16.4109 8.26873 16.5797 8.77498 16.6219 9.11248C16.6641 9.32342 16.4953 9.36561 16.5375 9.53436C16.5797 9.87186 16.5797 10.2094 16.6219 10.5469C16.6641 11.0953 16.7484 11.6437 16.7062 12.15C16.6219 12.9515 16.2 13.8375 15.2297 13.6687C15.2719 13.5844 15.5672 13.5422 15.6937 13.4578ZM17.4656 11.3484C17.5078 11.7703 17.6766 12.5297 17.4656 12.9094C17.2969 13.1625 17.2969 12.7406 17.2547 12.6984C17.2125 12.3609 17.2125 12.0234 17.2125 11.6437C17.1281 10.7156 16.8328 9.78748 16.8328 8.90155C16.8328 7.76248 17.8031 9.53436 17.2547 9.44998C17.2969 10.0828 17.3812 10.7156 17.4656 11.3484ZM10.5891 9.19686C10.6734 9.4078 9.61874 9.95623 9.49218 9.95623C9.44999 9.7453 9.95624 9.44999 10.0828 9.36561C10.2094 9.23905 10.2937 9.23905 10.2516 9.0703C10.1672 8.90155 10.2094 8.60624 10.4203 8.52186C10.8422 8.3953 10.5469 9.02811 10.5891 9.19686ZM6.24374 12.9515C6.24374 13.289 6.37031 13.1203 6.53906 13.0359C6.62343 13.2047 6.41249 13.6687 6.20156 13.4578C5.90624 13.1625 6.15937 12.4875 6.28593 12.1922C6.37031 12.4031 6.20156 12.7406 6.24374 12.9515ZM18.1406 10.3359C18.1828 10.1672 18.0562 9.99842 18.1828 9.82967C18.3516 9.61873 18.5203 9.87186 18.4359 9.95623C18.3516 10.0406 18.225 9.87186 18.225 10.125C18.225 10.2515 18.3094 10.5047 18.1828 10.6312C18.0984 10.589 17.7187 10.0406 17.7609 9.95623C17.9297 9.78748 18.0984 10.2937 18.1406 10.3359ZM7.12968 11.0531C7.04531 11.2219 6.07499 11.7703 6.03281 11.6437C6.03281 11.5172 7.25624 10.8 7.12968 11.0531ZM14.3016 13.2047C14.175 13.5844 14.7234 13.2469 14.85 13.2047C14.6812 13.5 14.0906 13.7531 14.175 13.2047C14.1328 13.2047 14.0484 13.2469 14.0062 13.2469C13.9219 13.1625 14.4281 12.825 14.3016 13.2047ZM18.9 13.0781C19.0266 13.0781 19.2375 13.4578 19.1109 13.5422C19.0266 13.6265 18.6469 13.6687 18.8578 13.5C19.1109 13.2469 18.9 13.0781 18.9 13.0781ZM12.9516 10.9265C12.9937 10.8422 12.9937 10.7156 13.0359 10.6312C13.4578 10.9687 12.3609 11.5172 12.5719 10.7156C12.6562 10.8 12.6562 10.9265 12.7406 10.9687C12.7406 10.8844 12.7828 10.7578 12.7828 10.6734C12.8672 10.7578 12.8672 10.8844 12.9516 10.9265ZM17.8875 11.475C17.7609 11.3062 18.5203 10.8422 18.6469 10.7578C18.7312 10.8844 18.1406 11.3484 17.8875 11.475ZM20.25 9.78749C20.1656 9.53436 19.9125 9.02811 20.1656 8.81717C20.3344 8.94373 20.4187 9.57655 20.25 9.78749ZM15.6516 8.94374C15.6094 8.85936 15.4828 8.77498 15.4828 8.64842C15.525 8.47967 15.6094 8.52186 15.6937 8.60623C15.8203 8.77498 15.9047 9.23905 15.6937 9.36561C15.6937 9.23905 15.7359 9.0703 15.6516 8.94374ZM10.5047 10.0828C10.5047 10.3359 10.0828 10.589 10.0406 10.2515C9.99843 10.125 10.2094 9.66092 10.2937 9.78749C10.125 10.1672 10.125 10.2937 10.5047 10.0828Z" fill="white"/>
<path d="M15.7781 9.61881C15.9469 10.0407 15.8625 9.66099 16.0312 9.57662C16.3266 10.1251 15.3984 9.99849 15.6094 9.66099C15.6516 9.70318 15.6937 9.78756 15.6937 9.82974C15.7359 9.78756 15.7359 9.70318 15.7781 9.61881ZM18.4781 11.5594C18.2672 11.3907 18.5203 11.1797 18.6469 11.3907C18.7312 11.5172 18.7312 11.8547 18.5625 11.9391C18.5625 11.8126 18.6047 11.6438 18.4781 11.5594ZM9.82968 12.4876C9.82968 12.4032 9.78749 11.7704 9.91406 11.8547C10.0828 11.9391 10.0406 12.4032 9.82968 12.4876ZM8.05781 8.52193C8.09999 8.64849 8.14218 8.81724 8.22656 8.60631C8.56406 8.98599 7.38281 8.85943 7.80468 8.47974C7.80468 8.52193 7.88906 8.77506 8.05781 8.52193ZM12.3609 9.45006C12.3609 9.28131 12.1078 8.56412 12.3187 8.56412C12.5719 8.60631 12.5297 9.23912 12.3609 9.45006ZM6.45468 9.07037C6.32812 9.02818 6.53906 8.81724 6.45468 8.64849C6.37031 8.69068 6.28593 8.56412 6.37031 8.47974C6.70781 8.22662 6.58124 9.07037 6.45468 9.07037ZM17.3812 17.6344L17.2125 17.1282L17.0437 17.6344H7.80468C7.80468 17.6344 7.88906 18.3938 8.81718 18.3938H17.0016V18.9844H19.2375V17.6344H17.3812ZM18.8156 18.6469H17.2969V18.2251H18.8156V18.6469Z" fill="white"/>
</svg>
