<svg width="23" height="17" viewBox="0 0 23 17" fill="none" xmlns="http://www.w3.org/2000/svg">
<path d="M2.538 0H20.4255C22.113 0 22.9635 0.7965 22.9635 2.4165V13.7835C22.9635 15.39 22.113 16.2 20.4255 16.2H2.538C0.8505 16.2 0 15.39 0 13.7835V2.4165C0 0.7965 0.8505 0 2.538 0ZM11.475 11.61L20.574 4.1445C20.898 3.8745 21.1545 3.2535 20.7495 2.7C20.358 2.1465 19.6425 2.133 19.17 2.4705L11.475 7.6815L3.7935 2.4705C3.321 2.133 2.6055 2.1465 2.214 2.7C1.809 3.2535 2.0655 3.8745 2.3895 4.1445L11.475 11.61Z" fill="white"/>
</svg>
