<svg width="33" height="27" viewBox="0 0 33 27" fill="none" xmlns="http://www.w3.org/2000/svg">
<path d="M8.375 15.125H19.75C20.2104 15.125 20.5966 14.969 20.9086 14.657C21.2195 14.3461 21.375 13.9604 21.375 13.5C21.375 13.0396 21.2195 12.6534 20.9086 12.3414C20.5966 12.0305 20.2104 11.875 19.75 11.875H8.375C7.91458 11.875 7.52838 12.0305 7.21638 12.3414C6.90546 12.6534 6.75 13.0396 6.75 13.5C6.75 13.9604 6.90546 14.3461 7.21638 14.657C7.52838 14.969 7.91458 15.125 8.375 15.125ZM8.375 10.25H19.75C20.2104 10.25 20.5966 10.094 20.9086 9.782C21.2195 9.47108 21.375 9.08542 21.375 8.625C21.375 8.16458 21.2195 7.77837 20.9086 7.46637C20.5966 7.15546 20.2104 7 19.75 7H8.375C7.91458 7 7.52838 7.15546 7.21638 7.46637C6.90546 7.77837 6.75 8.16458 6.75 8.625C6.75 9.08542 6.90546 9.47108 7.21638 9.782C7.52838 10.094 7.91458 10.25 8.375 10.25ZM3.5 26.5C2.60625 26.5 1.84142 26.182 1.2055 25.5461C0.5685 24.9091 0.25 24.1437 0.25 23.25V3.75C0.25 2.85625 0.5685 2.09142 1.2055 1.4555C1.84142 0.8185 2.60625 0.5 3.5 0.5H29.5C30.3937 0.5 31.1591 0.8185 31.7961 1.4555C32.432 2.09142 32.75 2.85625 32.75 3.75V23.25C32.75 24.1437 32.432 24.9091 31.7961 25.5461C31.1591 26.182 30.3937 26.5 29.5 26.5H3.5ZM3.5 23.25V3.75V23.25ZM3.5 23.25H29.5V3.75H3.5V23.25Z" fill="#531695"/>
</svg>
