<svg width="43" height="43" viewBox="0 0 43 43" fill="none" xmlns="http://www.w3.org/2000/svg">
<path d="M37.53 14.8798C37.512 13.5228 37.2579 12.1793 36.7793 10.9094C36.3643 9.8383 35.7304 8.86551 34.9181 8.05322C34.1058 7.24094 33.133 6.60703 32.0619 6.19198C30.8083 5.72142 29.484 5.46697 28.1453 5.43948C26.4217 5.36244 25.8753 5.34094 21.5 5.34094C17.1248 5.34094 16.564 5.34094 14.8529 5.43948C13.5148 5.46717 12.1911 5.72161 10.9381 6.19198C9.86682 6.60674 8.89388 7.24055 8.08155 8.05287C7.26923 8.86519 6.63542 9.83813 6.22067 10.9094C5.74916 12.1621 5.49527 13.4861 5.46996 14.8242C5.39292 16.5496 5.36963 17.0961 5.36963 21.4713C5.36963 25.8466 5.36963 26.4056 5.46996 28.1184C5.49684 29.4586 5.74946 30.7808 6.22067 32.0368C6.63612 33.1078 7.2704 34.0803 8.08299 34.8923C8.89559 35.7043 9.86862 36.3378 10.9399 36.7524C12.1895 37.2419 13.5134 37.5146 14.8547 37.5587C16.5801 37.6357 17.1265 37.659 21.5018 37.659C25.877 37.659 26.4378 37.659 28.1489 37.5587C29.4875 37.5323 30.8119 37.2785 32.0655 36.808C33.1363 36.3925 34.1089 35.7584 34.9211 34.9462C35.7333 34.1339 36.3674 33.1614 36.7829 32.0905C37.2541 30.8364 37.5068 29.5141 37.5336 28.1722C37.6107 26.4486 37.634 25.9021 37.634 21.5251C37.6304 17.1498 37.6304 16.5944 37.53 14.8798ZM21.4893 29.7452C16.9133 29.7452 13.2064 26.0383 13.2064 21.4624C13.2064 16.8864 16.9133 13.1795 21.4893 13.1795C23.686 13.1795 25.7928 14.0521 27.3461 15.6055C28.8995 17.1588 29.7721 19.2656 29.7721 21.4624C29.7721 23.6591 28.8995 25.7659 27.3461 27.3192C25.7928 28.8726 23.686 29.7452 21.4893 29.7452ZM30.1018 14.8045C29.8481 14.8048 29.5968 14.755 29.3624 14.658C29.128 14.561 28.9149 14.4187 28.7356 14.2394C28.5562 14.06 28.4139 13.8469 28.3169 13.6125C28.2199 13.3781 28.1701 13.1268 28.1704 12.8731C28.1704 12.6196 28.2203 12.3686 28.3173 12.1343C28.4143 11.9001 28.5566 11.6873 28.7358 11.508C28.9151 11.3288 29.1279 11.1866 29.3621 11.0895C29.5963 10.9925 29.8474 10.9426 30.1009 10.9426C30.3544 10.9426 30.6055 10.9925 30.8397 11.0895C31.0739 11.1866 31.2867 11.3288 31.466 11.508C31.6453 11.6873 31.7875 11.9001 31.8845 12.1343C31.9815 12.3686 32.0314 12.6196 32.0314 12.8731C32.0314 13.9409 31.1678 14.8045 30.1018 14.8045Z" fill="white"/>
<path d="M21.4893 26.8428C24.4608 26.8428 26.8696 24.4339 26.8696 21.4624C26.8696 18.4909 24.4608 16.082 21.4893 16.082C18.5178 16.082 16.1089 18.4909 16.1089 21.4624C16.1089 24.4339 18.5178 26.8428 21.4893 26.8428Z" fill="white"/>
</svg>
