<svg width="47" height="47" viewBox="0 0 47 47" fill="none" xmlns="http://www.w3.org/2000/svg">
<path d="M9.75837 14.0941C12.1248 14.0941 14.0432 12.1757 14.0432 9.80925C14.0432 7.4428 12.1248 5.52441 9.75837 5.52441C7.39193 5.52441 5.47354 7.4428 5.47354 9.80925C5.47354 12.1757 7.39193 14.0941 9.75837 14.0941Z" fill="white"/>
<path d="M18.0891 17.341V41.1132H25.4701V29.3574C25.4701 26.2554 26.0537 23.2513 29.8998 23.2513C33.6931 23.2513 33.7401 26.7978 33.7401 29.5532V41.1152H41.125V28.0786C41.125 21.6748 39.7463 16.7535 32.2616 16.7535C28.668 16.7535 26.2593 18.7256 25.2743 20.5919H25.1744V17.341H18.0891ZM6.06104 17.341H13.4538V41.1132H6.06104V17.341Z" fill="white"/>
</svg>
