<svg width="88" height="82" viewBox="0 0 88 82" fill="none" xmlns="http://www.w3.org/2000/svg">
<path d="M24 28C23.4333 28 22.9587 27.808 22.576 27.424C22.192 27.0413 22 26.5667 22 26C22 25.4333 22.192 24.958 22.576 24.574C22.9587 24.1913 23.4333 24 24 24C24.5667 24 25.042 24.1913 25.426 24.574C25.8087 24.958 26 25.4333 26 26C26 26.5667 25.8087 27.0413 25.426 27.424C25.042 27.808 24.5667 28 24 28ZM16 28C15.4333 28 14.958 27.808 14.574 27.424C14.1913 27.0413 14 26.5667 14 26C14 25.4333 14.1913 24.958 14.574 24.574C14.958 24.1913 15.4333 24 16 24C16.5667 24 17.042 24.1913 17.426 24.574C17.8087 24.958 18 25.4333 18 26C18 26.5667 17.8087 27.0413 17.426 27.424C17.042 27.808 16.5667 28 16 28ZM32 28C31.4333 28 30.9587 27.808 30.576 27.424C30.192 27.0413 30 26.5667 30 26C30 25.4333 30.192 24.958 30.576 24.574C30.9587 24.1913 31.4333 24 32 24C32.5667 24 33.0413 24.1913 33.424 24.574C33.808 24.958 34 25.4333 34 26C34 26.5667 33.808 27.0413 33.424 27.424C33.0413 27.808 32.5667 28 32 28ZM24 36C23.4333 36 22.9587 35.808 22.576 35.424C22.192 35.0413 22 34.5667 22 34C22 33.4333 22.192 32.9587 22.576 32.576C22.9587 32.192 23.4333 32 24 32C24.5667 32 25.042 32.192 25.426 32.576C25.8087 32.9587 26 33.4333 26 34C26 34.5667 25.8087 35.0413 25.426 35.424C25.042 35.808 24.5667 36 24 36ZM16 36C15.4333 36 14.958 35.808 14.574 35.424C14.1913 35.0413 14 34.5667 14 34C14 33.4333 14.1913 32.9587 14.574 32.576C14.958 32.192 15.4333 32 16 32C16.5667 32 17.042 32.192 17.426 32.576C17.8087 32.9587 18 33.4333 18 34C18 34.5667 17.8087 35.0413 17.426 35.424C17.042 35.808 16.5667 36 16 36ZM32 36C31.4333 36 30.9587 35.808 30.576 35.424C30.192 35.0413 30 34.5667 30 34C30 33.4333 30.192 32.9587 30.576 32.576C30.9587 32.192 31.4333 32 32 32C32.5667 32 33.0413 32.192 33.424 32.576C33.808 32.9587 34 33.4333 34 34C34 34.5667 33.808 35.0413 33.424 35.424C33.0413 35.808 32.5667 36 32 36ZM10 44C8.9 44 7.958 43.6087 7.174 42.826C6.39133 42.042 6 41.1 6 40V12C6 10.9 6.39133 9.95867 7.174 9.176C7.958 8.392 8.9 8 10 8H12V6C12 5.43333 12.1913 4.958 12.574 4.574C12.958 4.19133 13.4333 4 14 4C14.5667 4 15.042 4.19133 15.426 4.574C15.8087 4.958 16 5.43333 16 6V8H32V6C32 5.43333 32.192 4.958 32.576 4.574C32.9587 4.19133 33.4333 4 34 4C34.5667 4 35.0413 4.19133 35.424 4.574C35.808 4.958 36 5.43333 36 6V8H38C39.1 8 40.042 8.392 40.826 9.176C41.6087 9.95867 42 10.9 42 12V40C42 41.1 41.6087 42.042 40.826 42.826C40.042 43.6087 39.1 44 38 44H10ZM10 40H38V20H10V40ZM10 16H38V12H10V16ZM10 16V12V16Z" fill="#531695"/>
<path d="M56.8889 39.2222H49.1111C48.5954 39.2222 48.1009 39.4271 47.7362 39.7917C47.3715 40.1564 47.1667 40.651 47.1667 41.1667V52.8333C47.1667 53.349 47.3715 53.8436 47.7362 54.2083C48.1009 54.5729 48.5954 54.7778 49.1111 54.7778H56.8889C57.4046 54.7778 57.8992 54.5729 58.2638 54.2083C58.6285 53.8436 58.8334 53.349 58.8334 52.8333V41.1667C58.8334 40.651 58.6285 40.1564 58.2638 39.7917C57.8992 39.4271 57.4046 39.2222 56.8889 39.2222ZM56.1111 52.0556H49.8889V41.9445H56.1111V52.0556Z" fill="#531695"/>
<path d="M83.5472 36.0722L75.5944 28.1194C75.2323 27.7602 74.7434 27.5577 74.2333 27.5555H64.5111V23.7639C64.5375 22.7422 64.1606 21.7512 63.4619 21.0052C62.7632 20.2593 61.799 19.8183 60.7778 19.7778H44.9111C44.4121 19.7974 43.922 19.917 43.47 20.1294C43.018 20.3418 42.6132 20.6428 42.2796 21.0145C41.946 21.3862 41.6903 21.821 41.5278 22.2933C41.3653 22.7655 41.2991 23.2656 41.3333 23.7639V27.5555H31.7667C31.5108 27.5541 31.2571 27.6031 31.0202 27.6999C30.7833 27.7966 30.5678 27.9392 30.3861 28.1194L22.4528 36.0722C22.2726 36.2539 22.13 36.4694 22.0332 36.7063C21.9365 36.9432 21.8874 37.1969 21.8889 37.4528V66.4444C21.8889 67.4758 22.2986 68.465 23.0279 69.1943C23.7572 69.9236 24.7464 70.3333 25.7778 70.3333H80.2222C81.2536 70.3333 82.2428 69.9236 82.9721 69.1943C83.7014 68.465 84.1111 67.4758 84.1111 66.4444V37.4333C84.109 36.9232 83.9064 36.4344 83.5472 36.0722V36.0722ZM45.2222 23.6667H60.7778V27.5555H45.2222V23.6667ZM80.2222 45.0555H60.7778V48.8083H80.2222V66.4444H25.7778V48.8083H45.2222V45.0555H25.7778V38.25L32.5833 31.4444H73.4167L80.2222 38.25V45.0555Z" fill="#531695"/>
</svg>
