<svg width="38" height="37" viewBox="0 0 38 37" fill="none" xmlns="http://www.w3.org/2000/svg">
<path fill-rule="evenodd" clip-rule="evenodd" d="M19.0278 37.0001C29.2297 37.0001 37.5 28.7298 37.5 18.5279C37.5 8.32596 29.2297 0.0556641 19.0278 0.0556641C8.82584 0.0556641 0.555542 8.32596 0.555542 18.5279C0.555542 28.7298 8.82584 37.0001 19.0278 37.0001ZM12.3669 13.8989C13.4892 13.8989 14.3989 12.9891 14.3989 11.8669C14.3989 10.7447 13.4892 9.8349 12.3669 9.8349C11.2447 9.8349 10.335 10.7447 10.335 11.8669C10.335 12.9891 11.2447 13.8989 12.3669 13.8989ZM16.039 16.3048V27.5782H19.5392V22.0032C19.5392 20.5322 19.816 19.1076 21.6399 19.1076C23.4388 19.1076 23.4611 20.7894 23.4611 22.0961V27.5791H26.9632V21.3968C26.9632 18.36 26.3094 16.0262 22.7599 16.0262C21.0558 16.0262 19.9135 16.9614 19.4463 17.8464H19.399V16.3048H16.039ZM10.335 16.3048H13.8408V27.5782H10.335V16.3048Z" fill="white"/>
</svg>
