<svg width="38" height="38" viewBox="0 0 38 38" fill="none" xmlns="http://www.w3.org/2000/svg">
<g clip-path="url(#clip0_15_71)">
<path d="M21.9317 18.5862L17.6864 16.6053C17.3159 16.4333 17.0116 16.6261 17.0116 17.0362V20.7674C17.0116 21.1776 17.3159 21.3704 17.6864 21.1984L21.9298 19.2175C22.3022 19.0436 22.3022 18.7601 21.9317 18.5862ZM18.9018 0.756104C8.88004 0.756104 0.756042 8.8801 0.756042 18.9018C0.756042 28.9236 8.88004 37.0476 18.9018 37.0476C28.9235 37.0476 37.0475 28.9236 37.0475 18.9018C37.0475 8.8801 28.9235 0.756104 18.9018 0.756104ZM18.9018 26.2735C9.61343 26.2735 9.45087 25.4362 9.45087 18.9018C9.45087 12.3675 9.61343 11.5301 18.9018 11.5301C28.1901 11.5301 28.3527 12.3675 28.3527 18.9018C28.3527 25.4362 28.1901 26.2735 18.9018 26.2735Z" fill="white"/>
</g>
<defs>
<clipPath id="clip0_15_71">
<rect width="37.8036" height="37.8036" fill="white"/>
</clipPath>
</defs>
</svg>
