<svg width="39" height="38" viewBox="0 0 39 38" fill="none" xmlns="http://www.w3.org/2000/svg">
<g clip-path="url(#clip0_15_69)">
<path d="M19.8204 37.8036C17.2608 37.8036 14.8119 37.3052 12.4738 36.3084C10.1357 35.3117 8.12366 33.9703 6.43776 32.2844C4.75185 30.5985 3.41052 28.5865 2.41374 26.2484C1.41697 23.9103 0.918579 21.4614 0.918579 18.9018C0.918579 16.3422 1.41697 13.8933 2.41374 11.5552C3.41052 9.21709 4.75185 7.20508 6.43776 5.51918C8.12366 3.83328 10.1357 2.49194 12.4738 1.49516C14.8119 0.498387 17.2608 0 19.8204 0C22.38 0 24.8289 0.498387 27.167 1.49516C29.5051 2.49194 31.5171 3.83328 33.203 5.51918C34.8889 7.20508 36.2302 9.21709 37.227 11.5552C38.2238 13.8933 38.7222 16.3422 38.7222 18.9018C38.7222 21.4614 38.2238 23.9103 37.227 26.2484C36.2302 28.5865 34.8889 30.5985 33.203 32.2844C31.5171 33.9703 29.5051 35.3117 27.167 36.3084C24.8289 37.3052 22.38 37.8036 19.8204 37.8036ZM29.2713 11.8136C29.2713 11.1737 29.0436 10.62 28.5883 10.1523C28.133 9.68471 27.5731 9.4509 26.9086 9.4509H12.7322C12.0923 9.4509 11.5385 9.68471 11.0709 10.1523C10.6033 10.62 10.3695 11.1737 10.3695 11.8136V14.1764H14.5781C16.0056 12.6012 17.753 11.8136 19.8204 11.8136C21.8878 11.8136 23.6352 12.6012 25.0627 14.1764H29.2713V11.8136ZM15.0949 18.9018C15.0949 20.2062 15.5564 21.3199 16.4793 22.2428C17.4023 23.1658 18.516 23.6273 19.8204 23.6273C21.1248 23.6273 22.2385 23.1658 23.1614 22.2428C24.0844 21.3199 24.5458 20.2062 24.5458 18.9018C24.5458 17.5974 24.0844 16.4837 23.1614 15.5608C22.2385 14.6378 21.1248 14.1764 19.8204 14.1764C18.516 14.1764 17.4023 14.6378 16.4793 15.5608C15.5564 16.4837 15.0949 17.5974 15.0949 18.9018ZM29.2713 16.5391H26.4655C26.7609 17.3513 26.9086 18.1388 26.9086 18.9018C26.9086 20.8707 26.2194 22.5443 24.8412 23.9226C23.4629 25.3008 21.7893 25.99 19.8204 25.99C17.8514 25.99 16.1778 25.3008 14.7996 23.9226C13.4213 22.5443 12.7322 20.8707 12.7322 18.9018C12.7322 18.1388 12.8799 17.3513 13.1752 16.5391H10.3695V25.99C10.3695 26.6545 10.5971 27.2144 11.0525 27.6697C11.5078 28.125 12.0677 28.3527 12.7322 28.3527H26.9086C27.5731 28.3527 28.133 28.125 28.5883 27.6697C29.0436 27.2144 29.2713 26.6545 29.2713 25.99V16.5391Z" fill="white"/>
</g>
<defs>
<clipPath id="clip0_15_69">
<rect width="37.8036" height="37.8036" fill="white" transform="translate(0.918579)"/>
</clipPath>
</defs>
</svg>
