<svg width="39" height="38" viewBox="0 0 39 38" fill="none" xmlns="http://www.w3.org/2000/svg">
<g clip-path="url(#clip0_15_77)">
<path d="M38.749 19.0175C38.749 8.51282 30.2857 -0.00244141 19.8472 -0.00244141C9.40396 -7.86807e-05 0.940674 8.51282 0.940674 19.0199C0.940674 28.5109 7.85401 36.3788 16.8891 37.8059V24.5156H12.0927V19.0199H16.8938V14.826C16.8938 10.0604 19.7173 7.42833 24.034 7.42833C26.1037 7.42833 28.2656 7.79928 28.2656 7.79928V12.4775H25.8816C23.5354 12.4775 22.803 13.9447 22.803 15.4498V19.0175H28.0435L27.2071 24.5132H22.8006V37.8035C31.8357 36.3764 38.749 28.5086 38.749 19.0175Z" fill="white"/>
</g>
<defs>
<clipPath id="clip0_15_77">
<rect width="37.8036" height="37.8036" fill="white" transform="translate(0.94574)"/>
</clipPath>
</defs>
</svg>
